name rise44.8762peak52.3436fall86.788.mot
datacolumns 19
datarows 11
range 6.70163600000000 6.71830400000000
endheader
time	ground_force1_vx	ground_force1_vy	ground_force1_vz	ground_force1_px	ground_force1_py	ground_force1_pz	ground_force2_vx	ground_force2_vy	ground_force2_vz	ground_force2_px	ground_force2_py	ground_force2_pz	ground_torque1_x	ground_torque1_y	ground_torque1_z	ground_torque2_x	ground_torque2_y	ground_torque2_z	
6.70163600000000	-8.18759700000000	41.07291000000000	-9.89351600000000	0.26119800000000	0.00000000000000	0.07669300000000	-57.35038400000000	781.63657100000000	-51.94725000000000	0.06984700000000	0.00000000000000	-0.08540000000000	0.00000000000000	-5.87443600000000	0.00000000000000	0.00000000000000	-15.26919500000000	0.00000000000000	
6.70330300000000	-8.88632700000000	48.45038900000000	-11.14632000000000	0.26695000000000	0.00000000000000	0.07774500000000	-58.18704900000000	778.29756099999997	-51.33618300000000	0.06890100000000	0.00000000000000	-0.08528100000000	0.00000000000000	-6.70736200000000	0.00000000000000	0.00000000000000	-15.27295100000000	0.00000000000000	
6.70497000000000	-9.40415000000000	56.00659600000000	-12.29148400000000	0.27215800000000	0.00000000000000	0.07869100000000	-59.02695700000000	774.80499899999995	-50.70053700000000	0.06795500000000	0.00000000000000	-0.08515700000000	0.00000000000000	-7.49353900000000	0.00000000000000	0.00000000000000	-15.27867100000000	0.00000000000000	
6.70663900000000	-9.71821200000000	63.65261800000000	-13.30251800000000	0.27692000000000	0.00000000000000	0.07954900000000	-59.86849100000000	771.15576099999998	-50.04036700000000	0.06701000000000	0.00000000000000	-0.08502900000000	0.00000000000000	-8.21581000000000	0.00000000000000	0.00000000000000	-15.28614900000000	0.00000000000000	
6.70830700000000	-9.81544000000000	71.31984500000000	-14.16155000000000	0.28130700000000	0.00000000000000	0.08033300000000	-60.70994200000000	767.34676999999999	-49.35577600000000	0.06606800000000	0.00000000000000	-0.08489800000000	0.00000000000000	-8.86197200000000	0.00000000000000	0.00000000000000	-15.29515800000000	0.00000000000000	
6.70996900000000	-9.69232300000000	78.96235400000000	-14.85947800000000	0.28537900000000	0.00000000000000	0.08105300000000	-61.54951200000000	763.37500000000000	-48.64691700000000	0.06512900000000	0.00000000000000	-0.08476200000000	0.00000000000000	-9.42499700000000	0.00000000000000	0.00000000000000	-15.30544900000000	0.00000000000000	
6.71163800000000	-9.35394700000000	86.55703900000000	-15.39538000000000	0.28918200000000	0.00000000000000	0.08171900000000	-62.38532000000000	759.23749799999996	-47.91399100000000	0.06419500000000	0.00000000000000	-0.08462100000000	0.00000000000000	-9.90280600000000	0.00000000000000	0.00000000000000	-15.31675400000000	0.00000000000000	
6.71330200000000	-8.81249500000000	94.10181900000001	-15.77535000000000	0.29275300000000	0.00000000000000	0.08233700000000	-63.21540300000000	754.93139199999996	-47.15725400000000	0.06326700000000	0.00000000000000	-0.08447600000000	0.00000000000000	-10.29766800000000	0.00000000000000	0.00000000000000	-15.32878700000000	0.00000000000000	
6.71497300000000	-8.08542800000000	101.61242500000000	-16.01097300000000	0.29612200000000	0.00000000000000	0.08291300000000	-64.03772300000000	750.45390699999996	-46.37701300000000	0.06234600000000	0.00000000000000	-0.08432700000000	0.00000000000000	-10.61534600000000	0.00000000000000	0.00000000000000	-15.34124000000000	0.00000000000000	
6.71664200000000	-7.19354400000000	109.11827700000001	-16.11760600000000	0.29931300000000	0.00000000000000	0.08345200000000	-64.85017100000000	745.80238099999997	-45.57363300000000	0.06143200000000	0.00000000000000	-0.08417300000000	0.00000000000000	-10.86410200000000	0.00000000000000	0.00000000000000	-15.35379100000000	0.00000000000000	
6.71830400000000	-6.15910800000000	116.65794600000000	-16.11265500000000	0.30234700000000	0.00000000000000	0.08395900000000	-65.65057200000000	740.97428300000001	-44.74753700000000	0.06052800000000	0.00000000000000	-0.08401400000000	0.00000000000000	-11.05366500000000	0.00000000000000	0.00000000000000	-15.36609600000000	0.00000000000000	
